<svg width="44" height="26" viewBox="0 0 44 26" fill="none" xmlns="http://www.w3.org/2000/svg">
<path fill-rule="evenodd" clip-rule="evenodd" d="M23.9754 13.0001L42.6231 1.73384C43.2796 1.33718 43.2796 0.69409 42.6231 0.297489C41.9665 -0.0991123 40.9021 -0.0991631 40.2456 0.297489L21.5979 11.5637L2.95016 0.297489C2.29362 -0.0991631 1.22918 -0.0991631 0.572725 0.297489C-0.0837278 0.694141 -0.0838118 1.33723 0.572725 1.73384L19.2204 13L0.572725 24.2662C-0.0838118 24.6629 -0.0838118 25.306 0.572725 25.7026C0.900951 25.9009 1.33122 26 1.76148 26C2.19175 26 2.62193 25.9009 2.95024 25.7026L21.5979 14.4364L40.2456 25.7026C40.5738 25.9009 41.0041 26 41.4343 26C41.8646 26 42.2948 25.9009 42.6231 25.7026C43.2796 25.3059 43.2796 24.6628 42.6231 24.2662L23.9754 13.0001Z" fill="#363838"/>
</svg>
